<svg width="73" height="72" viewBox="0 0 73 72" fill="none" xmlns="http://www.w3.org/2000/svg">
<rect x="1.5" y="1" width="70" height="70" rx="35" fill="#242424" stroke="#E3E7F7" stroke-width="2"/>
<path d="M52.6335 45.5091C51.9607 45.1516 51.1668 45.091 50.4577 45.3516L43.5183 47.8364C43.5425 47.7455 43.5668 47.6546 43.5789 47.5637C43.7062 46.7819 43.488 45.994 42.9789 45.394C42.4698 44.8001 41.7304 44.4546 40.9486 44.4546H37.0819C36.1971 44.4546 35.3425 44.1455 34.6153 43.5637C32.9304 42.2182 29.5183 40.4364 25.0516 42.891V42.1213C25.0516 41.4667 24.5183 40.9395 23.8698 40.9395H20.1122C19.4577 40.9395 18.9304 41.4728 18.9304 42.1213V53.297C18.9304 53.9516 19.4638 54.4788 20.1122 54.4788H23.8698C24.5244 54.4788 25.0516 53.9455 25.0516 53.297V52.8243C25.9365 52.8243 28.0577 52.9698 31.0698 54.1455C33.0638 54.9273 35.1365 55.3213 37.2031 55.3213C38.3486 55.3213 39.4941 55.2001 40.6213 54.9576C43.7183 54.2849 48.3365 52.9092 52.785 50.1879C53.385 49.8182 53.8274 49.2061 53.991 48.5031C54.2759 47.3152 53.7183 46.091 52.6335 45.5091ZM23.991 53.297C23.991 53.3637 23.9365 53.4182 23.8698 53.4182H20.1122C20.0456 53.4182 19.991 53.3637 19.991 53.297V42.1213C19.991 42.0546 20.0456 42.0001 20.1122 42.0001H23.8698C23.9365 42.0001 23.991 42.0546 23.991 42.1213V53.297ZM52.9668 48.2546C52.8698 48.6849 52.6031 49.0546 52.2395 49.2788C47.9183 51.9213 43.4153 53.2607 40.4031 53.9152C37.4577 54.5576 34.3668 54.291 31.4638 53.1576C28.3486 51.9395 26.1304 51.7576 25.1001 51.7576H25.0516V44.1152C29.2456 41.5273 32.4153 43.1637 33.9547 44.394C34.8759 45.1273 35.9547 45.5152 37.0819 45.5152H40.9486C41.4213 45.5152 41.8638 45.7213 42.1728 46.0788C42.4819 46.4425 42.6092 46.9092 42.5304 47.3879C42.4577 47.8364 42.1728 48.2182 41.7789 48.4546C41.7486 48.4667 41.7244 48.4849 41.7001 48.5031C41.4456 48.6425 41.1486 48.7213 40.8395 48.7213H36.4335C36.1425 48.7213 35.9001 48.9576 35.9001 49.2546C35.9001 49.5516 36.1365 49.7879 36.4335 49.7879H40.8395C41.3365 49.7879 41.8153 49.6607 42.2274 49.4304L50.8153 46.3516C51.2456 46.194 51.7244 46.2304 52.1486 46.4546C52.7971 46.794 53.1304 47.5395 52.9668 48.2546Z" fill="white"/>
<path d="M37.6819 43.0546H47.1667C48.094 43.0546 48.9607 42.7334 49.6152 42.1455C51.8698 40.1091 53.1667 37.2061 53.1667 34.1758C53.1667 30.1273 50.9122 26.4728 47.3607 24.6364C47.597 24.3152 47.7364 23.9213 47.7364 23.497C47.7364 22.4728 46.9364 21.6425 45.9364 21.5637L47.2395 17.3697C47.3122 17.1455 47.2213 16.9031 47.0273 16.7697C46.8334 16.6364 46.5728 16.6546 46.391 16.8061L45.2879 17.7273L44.191 16.8061C43.991 16.6364 43.7061 16.6425 43.5061 16.8061L42.4152 17.7273L41.3243 16.8061C41.1243 16.6364 40.8395 16.6364 40.6395 16.8061L39.5486 17.7273L38.4576 16.8061C38.2758 16.6546 38.0213 16.6364 37.8213 16.7697C37.6273 16.897 37.5364 17.1455 37.6092 17.3697L38.9122 21.5637C37.9061 21.6364 37.1122 22.4728 37.1122 23.497C37.1122 23.9273 37.2576 24.3152 37.4879 24.6364C33.9364 26.4728 31.6819 30.1273 31.6819 34.1758C31.6819 37.2061 32.9728 40.1091 35.2334 42.1455C35.8879 42.7273 36.7546 43.0546 37.6819 43.0546ZM39.2092 18.8303C39.4092 19 39.694 19 39.894 18.8303L40.9849 17.9091L42.0758 18.8303C42.2758 19 42.5607 19 42.7607 18.8303L43.8516 17.9091L44.9486 18.8303C45.1486 19 45.4334 19 45.6334 18.8303L45.6819 18.7879L44.8213 21.5516H40.0213L39.1667 18.794L39.2092 18.8303ZM39.0576 22.6061H45.7849C46.2758 22.6061 46.6698 23.0061 46.6698 23.491C46.6698 23.9758 46.2698 24.3758 45.7849 24.3758H39.0576C38.5728 24.3758 38.1728 23.9758 38.1728 23.491C38.1728 23.0061 38.5728 22.6061 39.0576 22.6061ZM38.4819 25.3394C38.6637 25.4 38.8576 25.4364 39.0637 25.4364H45.791C45.997 25.4364 46.1849 25.394 46.3728 25.3394C49.8637 26.897 52.1061 30.3394 52.1061 34.1758C52.1061 36.9031 50.9425 39.5213 48.9061 41.3576C48.4516 41.7697 47.8334 41.994 47.1667 41.994H37.6819C37.0213 41.994 36.4031 41.7637 35.9425 41.3576C33.9122 39.5213 32.7425 36.9091 32.7425 34.1758C32.7425 30.3394 34.991 26.897 38.4819 25.3394Z" fill="white"/>
<path d="M36.3426 34.9819C36.5183 35.1455 36.7365 35.3576 36.7789 35.4788C36.8214 35.6182 36.7729 35.9152 36.7244 36.1758C36.6335 36.6728 36.5305 37.2364 36.8638 37.691C37.1971 38.1516 37.7668 38.2243 38.2699 38.291C38.5183 38.3273 38.8214 38.3637 38.9365 38.4485C39.0456 38.5273 39.1789 38.8061 39.288 39.0304C39.5062 39.491 39.7547 40.0122 40.3002 40.1879C40.8274 40.3576 41.3305 40.091 41.7668 39.8546C42.0032 39.7273 42.2699 39.5819 42.4274 39.5819C42.5789 39.5819 42.8517 39.7273 43.088 39.8546C43.4335 40.0364 43.8093 40.2425 44.2093 40.2425C44.3244 40.2425 44.4396 40.2243 44.5547 40.1879C45.1002 40.0122 45.3486 39.491 45.5729 39.0304C45.682 38.8061 45.8092 38.5334 45.9244 38.4485C46.0396 38.3637 46.3486 38.3213 46.5911 38.291C47.0941 38.2243 47.6638 38.1455 47.9971 37.6849C48.3305 37.2304 48.2274 36.6667 48.1365 36.1698C48.088 35.9091 48.0335 35.6122 48.082 35.4728C48.1244 35.3455 48.3426 35.1394 48.5183 34.9758C48.8699 34.6364 49.3123 34.2182 49.3123 33.6364C49.3123 33.0546 48.8699 32.6364 48.5183 32.297C48.3426 32.1334 48.1244 31.9213 48.082 31.8001C48.0335 31.6607 48.088 31.3637 48.1365 31.1031C48.2274 30.6061 48.3305 30.0425 47.9971 29.5879C47.6638 29.1273 47.0941 29.0546 46.5911 28.9879C46.3426 28.9576 46.0396 28.9152 45.9244 28.8304C45.8153 28.7516 45.682 28.4728 45.5729 28.2485C45.3547 27.7879 45.1062 27.2667 44.5608 27.091C44.0335 26.9213 43.5365 27.1879 43.0941 27.4243C42.8577 27.5516 42.5911 27.697 42.4335 27.697C42.282 27.697 42.0093 27.5516 41.7729 27.4243C41.3305 27.1879 40.8335 26.9213 40.3062 27.091C39.7608 27.2667 39.5123 27.7879 39.288 28.2485C39.1789 28.4728 39.0517 28.7455 38.9365 28.8304C38.8214 28.9152 38.5123 28.9576 38.2699 28.9879C37.7668 29.0546 37.1971 29.1334 36.8638 29.5879C36.5305 30.0425 36.6335 30.6061 36.7244 31.1031C36.7729 31.3637 36.8274 31.6607 36.7789 31.8001C36.7365 31.9273 36.5183 32.1334 36.3426 32.297C35.9911 32.6364 35.5486 33.0546 35.5486 33.6364C35.5426 34.2304 35.985 34.6485 36.3426 34.9819ZM37.0699 33.0788C37.3608 32.8061 37.6577 32.5213 37.785 32.1394C37.9123 31.7455 37.8335 31.3091 37.7668 30.9273C37.7305 30.7152 37.6577 30.3152 37.7183 30.2243C37.785 30.1334 38.1729 30.0788 38.4093 30.0485C38.8153 29.994 39.2274 29.9394 39.5608 29.697C39.888 29.4607 40.0699 29.0849 40.2456 28.7152C40.3486 28.5031 40.5183 28.1455 40.6335 28.1091C40.7305 28.0788 41.0941 28.2728 41.2699 28.3698C41.6153 28.5576 42.0093 28.7698 42.4335 28.7698C42.8577 28.7698 43.2456 28.5576 43.5971 28.3698C43.7729 28.2728 44.1365 28.0788 44.2335 28.1091C44.3486 28.1455 44.5183 28.5031 44.6214 28.7152C44.7971 29.0788 44.9729 29.4546 45.3062 29.697C45.6396 29.9394 46.0759 30.0001 46.4577 30.0485C46.688 30.0788 47.082 30.1334 47.1486 30.2243C47.2153 30.3152 47.1426 30.7091 47.1002 30.9273C47.0274 31.3091 46.9486 31.7455 47.082 32.1394C47.2032 32.5213 47.5062 32.8061 47.7911 33.0788C47.9789 33.2546 48.2577 33.5213 48.2577 33.6485C48.2577 33.7758 47.9789 34.0425 47.7911 34.2182C47.5002 34.491 47.2032 34.7758 47.082 35.1576C46.9547 35.5516 47.0335 35.9879 47.1002 36.3698C47.1365 36.5819 47.2093 36.9819 47.1486 37.0728C47.082 37.1637 46.6941 37.2182 46.4577 37.2485C46.0759 37.297 45.6396 37.3576 45.3062 37.6001C44.9789 37.8364 44.7971 38.2122 44.6214 38.5819C44.5183 38.794 44.3486 39.1516 44.2335 39.1879C44.1365 39.2182 43.7729 39.0243 43.5971 38.9273C43.2517 38.7394 42.8577 38.5273 42.4335 38.5273C42.0093 38.5273 41.6214 38.7394 41.2699 38.9273C41.0941 39.0243 40.7244 39.2182 40.6335 39.1879C40.5183 39.1516 40.3486 38.794 40.2456 38.5819C40.0699 38.2182 39.8941 37.8425 39.5608 37.6001C39.2274 37.3576 38.7911 37.3031 38.4093 37.2485C38.1729 37.2122 37.7789 37.1576 37.7123 37.0667C37.6456 36.9758 37.7183 36.5819 37.7608 36.3637C37.8274 35.9819 37.9062 35.5455 37.7789 35.1516C37.6577 34.7698 37.3547 34.4849 37.0699 34.2122C36.882 34.0364 36.6032 33.7698 36.6032 33.6425C36.6032 33.5152 36.882 33.2546 37.0699 33.0788Z" fill="white"/>
</svg>
